<svg width="35" height="35" viewBox="0 0 35 35" fill="none" xmlns="http://www.w3.org/2000/svg">
<path fill-rule="evenodd" clip-rule="evenodd" d="M28.6364 5.83333V1.94444H31.8182V5.83333H35V9.72222H31.8182V13.6111H28.6364V9.72222H25.4545V5.83333H28.6364ZM9.44526 5.53268C9.55797 5.34116 9.68316 5.10671 9.84279 4.79057C9.93224 4.61342 10.2586 3.95357 10.312 3.84691C11.6308 1.2102 12.5895 0 14.3182 0H22.2727V3.88889H14.3182C14.1802 3.88889 13.7463 4.43668 13.0267 5.87531C12.9805 5.96766 12.6493 6.63733 12.5505 6.83295C12.3549 7.22034 12.1923 7.52476 12.0282 7.80355C11.3151 9.01524 10.6024 9.72222 9.54546 9.72222H4.77273C3.89409 9.72222 3.18182 10.5928 3.18182 11.6667V29.1667C3.18182 30.2406 3.89409 31.1111 4.77273 31.1111H30.2273C31.1059 31.1111 31.8182 30.2406 31.8182 29.1667V17.5H35V29.1667C35 32.3883 32.8632 35 30.2273 35H4.77273C2.13682 35 0 32.3883 0 29.1667V11.6667C0 8.44501 2.13682 5.83333 4.77273 5.83333H9.25304C9.30601 5.75933 9.37093 5.65897 9.44526 5.53268ZM17.5 29.1667C13.1068 29.1667 9.54545 24.8139 9.54545 19.4444C9.54545 14.075 13.1068 9.72222 17.5 9.72222C21.8932 9.72222 25.4545 14.075 25.4545 19.4444C25.4545 24.8139 21.8932 29.1667 17.5 29.1667ZM17.5 25.2778C20.1359 25.2778 22.2727 22.6661 22.2727 19.4444C22.2727 16.2228 20.1359 13.6111 17.5 13.6111C14.8641 13.6111 12.7273 16.2228 12.7273 19.4444C12.7273 22.6661 14.8641 25.2778 17.5 25.2778Z" fill="#4F63F7"/>
</svg>
