<svg width="34" height="34" viewBox="0 0 34 34" fill="none" xmlns="http://www.w3.org/2000/svg">
<path d="M8.5 8.50001C8.5 7.71761 9.13427 7.08334 9.91667 7.08334H24.0833C24.8658 7.08334 25.5 7.71761 25.5 8.50001C25.5 9.28241 24.8658 9.91668 24.0833 9.91668H9.91667C9.13426 9.91668 8.5 9.28241 8.5 8.50001Z" fill="black"/>
<path d="M8.5 14.1667C8.5 13.3843 9.13427 12.75 9.91667 12.75H24.0833C24.8658 12.75 25.5 13.3843 25.5 14.1667C25.5 14.9491 24.8658 15.5833 24.0833 15.5833H9.91667C9.13426 15.5833 8.5 14.9491 8.5 14.1667Z" fill="black"/>
<path d="M9.91667 18.4167C9.13427 18.4167 8.5 19.0509 8.5 19.8333C8.5 20.6157 9.13426 21.25 9.91667 21.25H24.0833C24.8658 21.25 25.5 20.6157 25.5 19.8333C25.5 19.0509 24.8658 18.4167 24.0833 18.4167H9.91667Z" fill="black"/>
<path d="M8.5 25.5C8.5 24.7176 9.13427 24.0833 9.91667 24.0833H15.5833C16.3658 24.0833 17 24.7176 17 25.5C17 26.2824 16.3658 26.9167 15.5833 26.9167H9.91667C9.13427 26.9167 8.5 26.2824 8.5 25.5Z" fill="black"/>
<path fill-rule="evenodd" clip-rule="evenodd" d="M2.83334 5.66666C2.83334 3.31945 4.73614 1.41666 7.08334 1.41666H26.9167C29.264 1.41666 31.1667 3.31945 31.1667 5.66666V28.3333C31.1667 30.6806 29.264 32.5833 26.9167 32.5833H7.08334C4.73614 32.5833 2.83334 30.6806 2.83334 28.3333V5.66666ZM7.08334 4.24999H26.9167C27.6991 4.24999 28.3333 4.88425 28.3333 5.66666V28.3333C28.3333 29.1157 27.6991 29.75 26.9167 29.75H7.08334C6.30095 29.75 5.66668 29.1157 5.66668 28.3333V5.66666C5.66668 4.88426 6.30093 4.24999 7.08334 4.24999Z" fill="black"/>
</svg>
