<svg width="30" height="30" viewBox="0 0 30 30" fill="none" xmlns="http://www.w3.org/2000/svg">
<path d="M15 30C12.0333 30 9.13319 29.1203 6.66645 27.472C4.19971 25.8238 2.27713 23.4811 1.14181 20.7403C0.00649927 17.9994 -0.290551 14.9834 0.288228 12.0736C0.867006 9.16394 2.29562 6.49119 4.3934 4.3934C6.49119 2.29562 9.16394 0.867006 12.0736 0.288228C14.9834 -0.290551 17.9994 0.00649927 20.7403 1.14181C23.4811 2.27713 25.8238 4.19971 27.472 6.66645C29.1203 9.13319 30 12.0333 30 15C30 18.9782 28.4196 22.7936 25.6066 25.6066C22.7936 28.4196 18.9782 30 15 30ZM15 2.3077C12.4897 2.3077 10.0358 3.05209 7.94854 4.44674C5.8613 5.84139 4.23449 7.82365 3.27384 10.1429C2.31319 12.4621 2.06184 15.0141 2.55158 17.4761C3.04131 19.9382 4.25014 22.1998 6.02519 23.9748C7.80024 25.7499 10.0618 26.9587 12.5239 27.4484C14.9859 27.9382 17.5379 27.6868 19.8571 26.7262C22.1764 25.7655 24.1586 24.1387 25.5533 22.0515C26.9479 19.9642 27.6923 17.5103 27.6923 15C27.6923 11.6338 26.3551 8.40546 23.9748 6.02519C21.5946 3.64492 18.3662 2.3077 15 2.3077Z" fill="#4F63F7"/>
<path d="M15 23.0769C14.694 23.0769 14.4005 22.9554 14.1841 22.739C13.9677 22.5226 13.8461 22.2291 13.8461 21.9231V8.07693C13.8461 7.77091 13.9677 7.47742 14.1841 7.26103C14.4005 7.04465 14.694 6.92308 15 6.92308C15.306 6.92308 15.5995 7.04465 15.8159 7.26103C16.0323 7.47742 16.1538 7.77091 16.1538 8.07693V21.9231C16.1538 22.2291 16.0323 22.5226 15.8159 22.739C15.5995 22.9554 15.306 23.0769 15 23.0769Z" fill="#4F63F7"/>
<path d="M21.9231 16.1538H8.07694C7.77092 16.1538 7.47744 16.0323 7.26105 15.8159C7.04466 15.5995 6.9231 15.306 6.9231 15C6.9231 14.694 7.04466 14.4005 7.26105 14.1841C7.47744 13.9677 7.77092 13.8461 8.07694 13.8461H21.9231C22.2291 13.8461 22.5226 13.9677 22.739 14.1841C22.9554 14.4005 23.0769 14.694 23.0769 15C23.0769 15.306 22.9554 15.5995 22.739 15.8159C22.5226 16.0323 22.2291 16.1538 21.9231 16.1538Z" fill="#4F63F7"/>
</svg>
