<svg width="34" height="34" viewBox="0 0 34 34" fill="none" xmlns="http://www.w3.org/2000/svg">
<path d="M17 0C7.57273 0 0 7.57273 0 17C0 26.4273 7.57273 34 17 34C26.4273 34 34 26.4273 34 17C34 7.57273 26.4273 0 17 0ZM24.7273 20.0909H20.0909V24.7273C20.0909 26.4273 18.7 27.8182 17 27.8182C15.3 27.8182 13.9091 26.4273 13.9091 24.7273V20.0909H9.27273C7.57273 20.0909 6.18182 18.7 6.18182 17C6.18182 15.3 7.57273 13.9091 9.27273 13.9091H13.9091V9.27273C13.9091 7.57273 15.3 6.18182 17 6.18182C18.7 6.18182 20.0909 7.57273 20.0909 9.27273V13.9091H24.7273C26.4273 13.9091 27.8182 15.3 27.8182 17C27.8182 18.7 26.4273 20.0909 24.7273 20.0909Z" fill="black"/>
</svg>
