<svg width="200" height="200" viewBox="0 0 200 200" fill="none" xmlns="http://www.w3.org/2000/svg">
<g clip-path="url(#clip0_1_2)">
<rect width="200" height="200" fill="white"/>
<path d="M100 0C44.7656 0 0 44.7656 0 100C0 155.234 44.7656 200 100 200C155.234 200 200 155.234 200 100C200 44.7656 155.234 0 100 0ZM100 50C115.535 50 128.125 62.5938 128.125 78.125C128.125 93.6562 115.547 106.25 100 106.25C84.4688 106.25 71.875 93.6562 71.875 78.125C71.875 62.5938 84.4531 50 100 50ZM100 175C79.3242 175 60.5859 166.59 46.9922 153.012C53.3203 136.68 68.9453 125 87.5 125H112.5C131.07 125 146.695 136.672 153.008 153.012C139.414 166.602 120.664 175 100 175Z" fill="#C6DAE6"/>
<path d="M187.556 156.444H176.444V145.556C176.444 143.715 174.951 142 173.111 142C171.271 142 169.778 143.715 169.778 145.556V156.444H159.111C157.271 156.444 155.555 158.16 155.555 160C155.555 161.84 157.271 163.111 159.111 163.111H169.778V174.222C169.778 176.062 171.271 177.778 173.111 177.778C174.951 177.778 176.444 176.062 176.444 174.222V163.111H187.556C189.396 163.111 191.111 161.84 191.111 160C191.111 158.16 189.396 156.444 187.556 156.444Z" fill="#1E36E2"/>
</g>
<defs>
<clipPath id="clip0_1_2">
<rect width="200" height="200" fill="white"/>
</clipPath>
</defs>
</svg>
