<svg width="34" height="34" viewBox="0 0 34 34" fill="none" xmlns="http://www.w3.org/2000/svg">
<g filter="url(#filter0_d_1_8)">
<path d="M32.8595 14.7043C27.6204 9.92894 18.1065 1.03238 18.0123 0.942028L17 0L15.9924 0.942028C15.8965 1.03071 6.37809 9.92392 1.06327 14.7428C0.386364 15.4021 0 16.324 0 17.2677C0 19.115 1.38473 20.6142 3.09091 20.6142H4.63636V30.6535C4.63636 32.5008 6.02109 34 7.72727 34H13.9091H20.0909C22.5051 34 23.8586 34 26.2727 34C27.9789 34 29.3636 32.5008 29.3636 30.6535V20.6142H30.9091C32.6153 20.6142 34 19.115 34 17.2677C34 16.2671 33.575 15.3251 32.8595 14.7043ZM20.0909 34H13.9091V23.4252H20.0909V34ZM26.2727 17.2677L26.2758 30.6535C26.2727 30.6535 23.1818 30.6535 23.1818 30.6535V20.6142H10.8182V30.6535H7.72727V17.2677H3.08936C7.36255 13.3992 14.3944 6.84852 17 4.41732C19.6056 6.84852 26.6344 13.3975 30.9091 17.2694L26.2727 17.2677Z" fill="black"/>
<path d="M13.4091 23.4252V33.5H7.72727C6.33389 33.5 5.13636 32.2628 5.13636 30.6535V20.6142V20.1142H4.63636H3.09091C1.69753 20.1142 0.5 18.877 0.5 17.2677C0.5 16.4609 0.830133 15.6711 1.406 15.107C4.06529 12.6957 7.77173 9.26941 10.8251 6.43504C12.3534 5.01639 13.7185 3.74561 14.7075 2.82395C15.2021 2.36311 15.6026 1.98956 15.8825 1.72843L16.2084 1.42423L16.2973 1.34135L16.3219 1.31834L16.3291 1.31169L16.3312 1.30972L16.332 1.30899L16.3338 1.30727L17.0008 0.683741L17.6705 1.307C17.918 1.5407 27.3241 10.3354 32.5226 15.0739L32.5225 15.074L32.5318 15.082C33.1334 15.604 33.5 16.4061 33.5 17.2677C33.5 18.877 32.3025 20.1142 30.9091 20.1142H29.3636H28.8636V20.6142V30.6535C28.8636 32.2628 27.6661 33.5 26.2727 33.5H26.2586H26.2445H26.2304H26.2163H26.2023H26.1883H26.1743H26.1603H26.1464H26.1325H26.1186H26.1047H26.0909H26.077H26.0632H26.0494H26.0357H26.0219H26.0082H25.9945H25.9809H25.9672H25.9536H25.94H25.9264H25.9129H25.8993H25.8858H25.8723H25.8589H25.8454H25.832H25.8186H25.8052H25.7918H25.7785H25.7652H25.7519H25.7386H25.7253H25.7121H25.6989H25.6857H25.6725H25.6593H25.6462H25.6331H25.62H25.6069H25.5938H25.5808H25.5678H25.5548H25.5418H25.5288H25.5159H25.5029H25.49H25.4772H25.4643H25.4514H25.4386H25.4258H25.413H25.4002H25.3875H25.3747H25.362H25.3493H25.3366H25.3239H25.3113H25.2986H25.286H25.2734H25.2608H25.2483H25.2357H25.2232H25.2107H25.1982H25.1857H25.1732H25.1608H25.1484H25.1359H25.1235H25.1112H25.0988H25.0864H25.0741H25.0618H25.0495H25.0372H25.0249H25.0126H25.0004H24.9882H24.976H24.9638H24.9516H24.9394H24.9272H24.9151H24.903H24.8909H24.8788H24.8667H24.8546H24.8426H24.8305H24.8185H24.8065H24.7945H24.7825H24.7705H24.7586H24.7466H24.7347H24.7228H24.7108H24.6989H24.6871H24.6752H24.6633H24.6515H24.6397H24.6278H24.616H24.6042H24.5924H24.5807H24.5689H24.5572H24.5454H24.5337H24.522H24.5103H24.4986H24.4869H24.4752H24.4636H24.4519H24.4403H24.4287H24.417H24.4054H24.3938H24.3823H24.3707H24.3591H24.3476H24.336H24.3245H24.3129H24.3014H24.2899H24.2784H24.2669H24.2555H24.244H24.2325H24.2211H24.2096H24.1982H24.1868H24.1754H24.1639H24.1525H24.1411H24.1298H24.1184H24.107H24.0957H24.0843H24.073H24.0616H24.0503H24.039H24.0277H24.0163H24.005H23.9937H23.9825H23.9712H23.9599H23.9486H23.9374H23.9261H23.9149H23.9036H23.8924H23.8812H23.8699H23.8587H23.8475H23.8363H23.8251H23.8139H23.8027H23.7915H23.7804H23.7692H23.758H23.7469H23.7357H23.7245H23.7134H23.7022H23.6911H23.68H23.6688H23.6577H23.6466H23.6355H23.6244H23.6132H23.6021H23.591H23.5799H23.5688H23.5577H23.5466H23.5356H23.5245H23.5134H23.5023H23.4912H23.4802H23.4691H23.458H23.447H23.4359H23.4248H23.4138H23.4027H23.3916H23.3806H23.3695H23.3585H23.3474H23.3364H23.3253H23.3143H23.3033H23.2922H23.2812H23.2701H23.2591H23.248H23.237H23.226H23.2149H23.2039H23.1929H23.1818H23.1708H23.1597H23.1487H23.1377H23.1266H23.1156H23.1045H23.0935H23.0825H23.0714H23.0604H23.0493H23.0383H23.0272H23.0162H23.0051H22.9941H22.983H22.972H22.9609H22.9499H22.9388H22.9277H22.9167H22.9056H22.8946H22.8835H22.8724H22.8613H22.8502H22.8392H22.8281H22.817H22.8059H22.7948H22.7837H22.7726H22.7615H22.7504H22.7393H22.7282H22.717H22.7059H22.6948H22.6837H22.6725H22.6614H22.6502H22.6391H22.6279H22.6168H22.6056H22.5944H22.5833H22.5721H22.5609H22.5497H22.5385H22.5273H22.5161H22.5049H22.4937H22.4825H22.4712H22.46H22.4488H22.4375H22.4263H22.415H22.4037H22.3925H22.3812H22.3699H22.3586H22.3473H22.336H22.3247H22.3133H22.302H22.2907H22.2793H22.268H22.2566H22.2453H22.2339H22.2225H22.2111H22.1997H22.1883H22.1769H22.1654H22.154H22.1426H22.1311H22.1196H22.1082H22.0967H22.0852H22.0737H22.0622H22.0507H22.0392H22.0276H22.0161H22.0045H21.993H21.9814H21.9698H21.9582H21.9466H21.935H21.9233H21.9117H21.9001H21.8884H21.8767H21.865H21.8534H21.8417H21.8299H21.8182H21.8065H21.7947H21.783H21.7712H21.7594H21.7476H21.7358H21.724H21.7121H21.7003H21.6884H21.6766H21.6647H21.6528H21.6409H21.629H21.617H21.6051H21.5931H21.5811H21.5692H21.5572H21.5451H21.5331H21.5211H21.509H21.4969H21.4849H21.4728H21.4607H21.4485H21.4364H21.4242H21.4121H21.3999H21.3877H21.3755H21.3632H21.351H21.3387H21.3265H21.3142H21.3019H21.2895H21.2772H21.2648H21.2525H21.2401H21.2277H21.2153H21.2028H21.1904H21.1779H21.1654H21.153H21.1404H21.1279H21.1154H21.1028H21.0902H21.0776H21.065H21.0524H21.0397H21.027H21.0143H21.0016H20.9889H20.9762H20.9634H20.9506H20.9378H20.925H20.9122H20.8994H20.8865H20.8736H20.8607H20.8478H20.8348H20.8219H20.8089H20.7959H20.7829H20.7698H20.7568H20.7437H20.7306H20.7175H20.7043H20.6912H20.678H20.6648H20.6516H20.6383H20.6251H20.6118H20.5985H20.5909V23.4252V22.9252H20.0909H13.9091H13.4091V23.4252ZM3.08936 17.7677H7.22727V30.6535V31.1535H7.72727H10.8182H11.3182V30.6535V21.1142H22.6818V30.6535V31.1535H23.1818V30.6535L23.1819 31.1535H23.182H23.1821H23.1824H23.1827H23.1831H23.1835H23.1841H23.1846H23.1853H23.186H23.1868H23.1877H23.1886H23.1896H23.1907H23.1918H23.193H23.1943H23.1956H23.197H23.1984H23.2H23.2016H23.2032H23.2049H23.2067H23.2085H23.2104H23.2124H23.2144H23.2165H23.2187H23.2209H23.2232H23.2255H23.2279H23.2304H23.2329H23.2355H23.2381H23.2408H23.2436H23.2464H23.2493H23.2522H23.2552H23.2582H23.2613H23.2645H23.2677H23.271H23.2743H23.2777H23.2812H23.2847H23.2882H23.2918H23.2955H23.2992H23.303H23.3068H23.3107H23.3146H23.3186H23.3227H23.3268H23.3309H23.3351H23.3394H23.3437H23.348H23.3524H23.3569H23.3614H23.3659H23.3705H23.3752H23.3799H23.3846H23.3894H23.3943H23.3992H23.4041H23.4091H23.4142H23.4192H23.4244H23.4296H23.4348H23.44H23.4454H23.4507H23.4561H23.4616H23.4671H23.4726H23.4782H23.4838H23.4895H23.4952H23.501H23.5068H23.5126H23.5185H23.5244H23.5304H23.5364H23.5425H23.5486H23.5547H23.5609H23.5671H23.5733H23.5796H23.5859H23.5923H23.5987H23.6052H23.6116H23.6182H23.6247H23.6313H23.6379H23.6446H23.6513H23.658H23.6648H23.6716H23.6785H23.6854H23.6923H23.6992H23.7062H23.7132H23.7203H23.7274H23.7345H23.7416H23.7488H23.756H23.7633H23.7705H23.7778H23.7852H23.7926H23.8H23.8074H23.8148H23.8223H23.8299H23.8374H23.845H23.8526H23.8602H23.8679H23.8756H23.8833H23.891H23.8988H23.9066H23.9144H23.9223H23.9301H23.938H23.946H23.9539H23.9619H23.9699H23.9779H23.986H23.994H24.0021H24.0102H24.0184H24.0265H24.0347H24.0429H24.0512H24.0594H24.0677H24.076H24.0843H24.0926H24.101H24.1093H24.1177H24.1261H24.1346H24.143H24.1515H24.16H24.1685H24.177H24.1855H24.1941H24.2026H24.2112H24.2198H24.2284H24.2371H24.2457H24.2544H24.2631H24.2718H24.2805H24.2892H24.2979H24.3067H24.3154H24.3242H24.333H24.3418H24.3506H24.3594H24.3682H24.3771H24.3859H24.3948H24.4037H24.4126H24.4215H24.4304H24.4393H24.4482H24.4571H24.4661H24.475H24.484H24.4929H24.5019H24.5109H24.5198H24.5288H24.5378H24.5468H24.5558H24.5649H24.5739H24.5829H24.5919H24.601H24.61H24.619H24.6281H24.6371H24.6462H24.6552H24.6643H24.6733H24.6824H24.6914H24.7005H24.7095H24.7186H24.7277H24.7367H24.7458H24.7548H24.7639H24.773H24.782H24.7911H24.8001H24.8092H24.8182H24.8273H24.8363H24.8453H24.8544H24.8634H24.8724H24.8815H24.8905H24.8995H24.9085H24.9175H24.9265H24.9355H24.9445H24.9534H24.9624H24.9714H24.9803H24.9893H24.9982H25.0072H25.0161H25.025H25.0339H25.0428H25.0517H25.0606H25.0694H25.0783H25.0871H25.096H25.1048H25.1136H25.1224H25.1312H25.14H25.1487H25.1575H25.1662H25.1749H25.1837H25.1924H25.201H25.2097H25.2183H25.227H25.2356H25.2442H25.2528H25.2614H25.2699H25.2785H25.287H25.2955H25.304H25.3125H25.3209H25.3293H25.3378H25.3462H25.3545H25.3629H25.3712H25.3795H25.3878H25.3961H25.4044H25.4126H25.4208H25.429H25.4372H25.4453H25.4534H25.4615H25.4696H25.4777H25.4857H25.4937H25.5017H25.5096H25.5176H25.5255H25.5334H25.5412H25.549H25.5568H25.5646H25.5724H25.5801H25.5878H25.5955H25.6031H25.6107H25.6183H25.6259H25.6334H25.6409H25.6483H25.6558H25.6632H25.6706H25.6779H25.6852H25.6925H25.6998H25.707H25.7142H25.7213H25.7285H25.7356H25.7426H25.7496H25.7566H25.7636H25.7705H25.7774H25.7843H25.7911H25.7979H25.8046H25.8113H25.818H25.8246H25.8312H25.8378H25.8443H25.8508H25.8573H25.8637H25.8701H25.8764H25.8827H25.889H25.8952H25.9014H25.9075H25.9136H25.9197H25.9257H25.9317H25.9376H25.9435H25.9494H25.9552H25.9609H25.9667H25.9724H25.978H25.9836H25.9891H25.9946H26.0001H26.0055H26.0109H26.0162H26.0215H26.0268H26.0319H26.0371H26.0422H26.0472H26.0522H26.0572H26.0621H26.067H26.0718H26.0765H26.0813H26.0859H26.0905H26.0951H26.0996H26.1041H26.1085H26.1129H26.1172H26.1215H26.1257H26.1298H26.1339H26.138H26.142H26.1459H26.1498H26.1537H26.1575H26.1612H26.1649H26.1685H26.1721H26.1756H26.179H26.1824H26.1858H26.1891H26.1923H26.1955H26.1986H26.2017H26.2047H26.2076H26.2105H26.2134H26.2161H26.2188H26.2215H26.2241H26.2266H26.2291H26.2315H26.2339H26.2362H26.2384H26.2406H26.2427H26.2447H26.2467H26.2486H26.2505H26.2523H26.254H26.2557H26.2573H26.2588H26.2603H26.2617H26.263H26.2643H26.2655H26.2667H26.2678H26.2688H26.2697H26.2706H26.2714H26.2722H26.2728H26.2734H26.274H26.2744H26.2749H26.2752H26.2754H26.2756H26.2758H26.2758H26.7759L26.7758 30.6534L26.7728 17.7679L30.9089 17.7694L32.2064 17.7699L31.2447 16.8988C26.9733 13.0299 19.9474 6.48353 17.3411 4.05174L17 3.73348L16.6589 4.05174C14.0527 6.48351 7.02368 13.0315 2.7538 16.897L1.79205 17.7677H3.08936Z" stroke="black"/>
</g>
<defs>
<filter id="filter0_d_1_8" x="-4" y="0" width="42" height="42" filterUnits="userSpaceOnUse" color-interpolation-filters="sRGB">
<feFlood flood-opacity="0" result="BackgroundImageFix"/>
<feColorMatrix in="SourceAlpha" type="matrix" values="0 0 0 0 0 0 0 0 0 0 0 0 0 0 0 0 0 0 127 0" result="hardAlpha"/>
<feOffset dy="4"/>
<feGaussianBlur stdDeviation="2"/>
<feComposite in2="hardAlpha" operator="out"/>
<feColorMatrix type="matrix" values="0 0 0 0 0 0 0 0 0 0 0 0 0 0 0 0 0 0 0.25 0"/>
<feBlend mode="normal" in2="BackgroundImageFix" result="effect1_dropShadow_1_8"/>
<feBlend mode="normal" in="SourceGraphic" in2="effect1_dropShadow_1_8" result="shape"/>
</filter>
</defs>
</svg>
