<svg width="34" height="34" viewBox="0 0 34 34" fill="none" xmlns="http://www.w3.org/2000/svg">
<g filter="url(#filter0_d_1_8)">
<path d="M32.8595 14.7043C27.6204 9.92894 18.1065 1.03238 18.0123 0.942028L17 0L15.9924 0.942028C15.8965 1.03071 6.37809 9.92392 1.06327 14.7428C0.386364 15.4021 0 16.324 0 17.2677C0 19.115 1.38473 20.6142 3.09091 20.6142H4.63636V30.6535C4.63636 32.5008 6.02109 34 7.72727 34H13.9091H20.0909C22.5051 34 23.8586 34 26.2727 34C27.9789 34 29.3636 32.5008 29.3636 30.6535V20.6142H30.9091C32.6153 20.6142 34 19.115 34 17.2677C34 16.2671 33.575 15.3251 32.8595 14.7043ZM20.0909 34H13.9091V23.4252H20.0909V34Z" fill="black"/>
<path d="M13.4091 23.4252V33.5H7.72727C6.33389 33.5 5.13636 32.2628 5.13636 30.6535V20.6142V20.1142H4.63636H3.09091C1.69753 20.1142 0.5 18.877 0.5 17.2677C0.5 16.4609 0.830133 15.6711 1.406 15.107C4.06529 12.6957 7.77173 9.26941 10.8251 6.43504C12.3534 5.01639 13.7185 3.74561 14.7075 2.82395C15.2021 2.36311 15.6026 1.98956 15.8825 1.72843L16.2084 1.42423L16.2973 1.34135L16.3219 1.31834L16.3291 1.31169L16.3312 1.30972L16.332 1.30899L16.3338 1.30727L17.0008 0.683741L17.6705 1.307C17.918 1.5407 27.3241 10.3354 32.5226 15.0739L32.5225 15.074L32.5318 15.082C33.1334 15.604 33.5 16.4061 33.5 17.2677C33.5 18.877 32.3025 20.1142 30.9091 20.1142H29.3636H28.8636V20.6142V30.6535C28.8636 32.2628 27.6661 33.5 26.2727 33.5H26.2586H26.2445H26.2304H26.2163H26.2023H26.1883H26.1743H26.1603H26.1464H26.1325H26.1186H26.1047H26.0909H26.077H26.0632H26.0494H26.0357H26.0219H26.0082H25.9945H25.9809H25.9672H25.9536H25.94H25.9264H25.9129H25.8993H25.8858H25.8723H25.8589H25.8454H25.832H25.8186H25.8052H25.7918H25.7785H25.7652H25.7519H25.7386H25.7253H25.7121H25.6989H25.6857H25.6725H25.6593H25.6462H25.6331H25.62H25.6069H25.5938H25.5808H25.5678H25.5548H25.5418H25.5288H25.5159H25.5029H25.49H25.4772H25.4643H25.4514H25.4386H25.4258H25.413H25.4002H25.3875H25.3747H25.362H25.3493H25.3366H25.3239H25.3113H25.2986H25.286H25.2734H25.2608H25.2483H25.2357H25.2232H25.2107H25.1982H25.1857H25.1732H25.1608H25.1484H25.1359H25.1235H25.1112H25.0988H25.0864H25.0741H25.0618H25.0495H25.0372H25.0249H25.0126H25.0004H24.9882H24.976H24.9638H24.9516H24.9394H24.9272H24.9151H24.903H24.8909H24.8788H24.8667H24.8546H24.8426H24.8305H24.8185H24.8065H24.7945H24.7825H24.7705H24.7586H24.7466H24.7347H24.7228H24.7108H24.6989H24.6871H24.6752H24.6633H24.6515H24.6397H24.6278H24.616H24.6042H24.5924H24.5807H24.5689H24.5572H24.5454H24.5337H24.522H24.5103H24.4986H24.4869H24.4752H24.4636H24.4519H24.4403H24.4287H24.417H24.4054H24.3938H24.3823H24.3707H24.3591H24.3476H24.336H24.3245H24.3129H24.3014H24.2899H24.2784H24.2669H24.2555H24.244H24.2325H24.2211H24.2096H24.1982H24.1868H24.1754H24.1639H24.1525H24.1411H24.1298H24.1184H24.107H24.0957H24.0843H24.073H24.0616H24.0503H24.039H24.0277H24.0163H24.005H23.9937H23.9825H23.9712H23.9599H23.9486H23.9374H23.9261H23.9149H23.9036H23.8924H23.8812H23.8699H23.8587H23.8475H23.8363H23.8251H23.8139H23.8027H23.7915H23.7804H23.7692H23.758H23.7469H23.7357H23.7245H23.7134H23.7022H23.6911H23.68H23.6688H23.6577H23.6466H23.6355H23.6244H23.6132H23.6021H23.591H23.5799H23.5688H23.5577H23.5466H23.5356H23.5245H23.5134H23.5023H23.4912H23.4802H23.4691H23.458H23.447H23.4359H23.4248H23.4138H23.4027H23.3916H23.3806H23.3695H23.3585H23.3474H23.3364H23.3253H23.3143H23.3033H23.2922H23.2812H23.2701H23.2591H23.248H23.237H23.226H23.2149H23.2039H23.1929H23.1818H23.1708H23.1597H23.1487H23.1377H23.1266H23.1156H23.1045H23.0935H23.0825H23.0714H23.0604H23.0493H23.0383H23.0272H23.0162H23.0051H22.9941H22.983H22.972H22.9609H22.9499H22.9388H22.9277H22.9167H22.9056H22.8946H22.8835H22.8724H22.8613H22.8502H22.8392H22.8281H22.817H22.8059H22.7948H22.7837H22.7726H22.7615H22.7504H22.7393H22.7282H22.717H22.7059H22.6948H22.6837H22.6725H22.6614H22.6502H22.6391H22.6279H22.6168H22.6056H22.5944H22.5833H22.5721H22.5609H22.5497H22.5385H22.5273H22.5161H22.5049H22.4937H22.4825H22.4712H22.46H22.4488H22.4375H22.4263H22.415H22.4037H22.3925H22.3812H22.3699H22.3586H22.3473H22.336H22.3247H22.3133H22.302H22.2907H22.2793H22.268H22.2566H22.2453H22.2339H22.2225H22.2111H22.1997H22.1883H22.1769H22.1654H22.154H22.1426H22.1311H22.1196H22.1082H22.0967H22.0852H22.0737H22.0622H22.0507H22.0392H22.0276H22.0161H22.0045H21.993H21.9814H21.9698H21.9582H21.9466H21.935H21.9233H21.9117H21.9001H21.8884H21.8767H21.865H21.8534H21.8417H21.8299H21.8182H21.8065H21.7947H21.783H21.7712H21.7594H21.7476H21.7358H21.724H21.7121H21.7003H21.6884H21.6766H21.6647H21.6528H21.6409H21.629H21.617H21.6051H21.5931H21.5811H21.5692H21.5572H21.5451H21.5331H21.5211H21.509H21.4969H21.4849H21.4728H21.4607H21.4485H21.4364H21.4242H21.4121H21.3999H21.3877H21.3755H21.3632H21.351H21.3387H21.3265H21.3142H21.3019H21.2895H21.2772H21.2648H21.2525H21.2401H21.2277H21.2153H21.2028H21.1904H21.1779H21.1654H21.153H21.1404H21.1279H21.1154H21.1028H21.0902H21.0776H21.065H21.0524H21.0397H21.027H21.0143H21.0016H20.9889H20.9762H20.9634H20.9506H20.9378H20.925H20.9122H20.8994H20.8865H20.8736H20.8607H20.8478H20.8348H20.8219H20.8089H20.7959H20.7829H20.7698H20.7568H20.7437H20.7306H20.7175H20.7043H20.6912H20.678H20.6648H20.6516H20.6383H20.6251H20.6118H20.5985H20.5909V23.4252V22.9252H20.0909H13.9091H13.4091V23.4252Z" stroke="black"/>
</g>
<defs>
<filter id="filter0_d_1_8" x="-4" y="0" width="42" height="42" filterUnits="userSpaceOnUse" color-interpolation-filters="sRGB">
<feFlood flood-opacity="0" result="BackgroundImageFix"/>
<feColorMatrix in="SourceAlpha" type="matrix" values="0 0 0 0 0 0 0 0 0 0 0 0 0 0 0 0 0 0 127 0" result="hardAlpha"/>
<feOffset dy="4"/>
<feGaussianBlur stdDeviation="2"/>
<feComposite in2="hardAlpha" operator="out"/>
<feColorMatrix type="matrix" values="0 0 0 0 0 0 0 0 0 0 0 0 0 0 0 0 0 0 0.25 0"/>
<feBlend mode="normal" in2="BackgroundImageFix" result="effect1_dropShadow_1_8"/>
<feBlend mode="normal" in="SourceGraphic" in2="effect1_dropShadow_1_8" result="shape"/>
</filter>
</defs>
</svg>
