<svg width="180" height="180" viewBox="0 0 180 180" fill="none" xmlns="http://www.w3.org/2000/svg">
<rect width="180" height="180" fill="white"/>
<g filter="url(#filter0_d_8_2)">
<rect x="10" y="10" width="160" height="160" rx="80" fill="#FFD180"/>
</g>
<g filter="url(#filter1_i_8_2)">
<rect x="30" y="30" width="120" height="120" rx="60" fill="#FFD180"/>
</g>
<rect x="31.25" y="31.25" width="117.5" height="117.5" rx="58.75" stroke="white" stroke-opacity="0.73" stroke-width="2.5"/>
<path d="M124.95 60.9997L81.5005 104.449L59.0508 81.9997L64.0005 77.05L81.5005 94.55L120.001 56.0499L124.95 60.9997Z" fill="#9C27B0" fill-opacity="0.76"/>
<path d="M110.758 133.9C111.098 134.619 111.957 134.928 112.666 134.568C120.583 130.541 127.285 124.478 132.082 117.002C132.511 116.333 132.289 115.448 131.608 115.038V115.038C130.927 114.628 130.045 114.849 129.614 115.517C125.112 122.507 118.839 128.182 111.435 131.964C110.727 132.326 110.418 133.182 110.758 133.9V133.9Z" fill="#DDB46B"/>
<path d="M55.6903 148.109L56.0514 147.243L62.0919 149.764L61.7309 150.63L59.1983 149.573L56.1982 156.761L55.2229 156.354L58.223 149.166L55.6903 148.109Z" fill="#9C27B0" fill-opacity="0.69"/>
<path d="M65.3878 159.978L67.0808 153.656L68.0194 153.907L67.7636 154.862L67.8295 154.879C68.0285 154.597 68.3051 154.399 68.6591 154.285C69.0131 154.171 69.3795 154.165 69.7582 154.267C69.8296 154.286 69.9184 154.311 70.0247 154.342C70.131 154.374 70.2108 154.4 70.2642 154.42L69.9997 155.408C69.969 155.391 69.8968 155.358 69.7832 155.31C69.6731 155.26 69.5536 155.218 69.4246 155.183C69.1172 155.101 68.8255 155.092 68.5495 155.156C68.277 155.218 68.0406 155.343 67.8404 155.531C67.6436 155.716 67.5071 155.952 67.4306 156.237L66.3593 160.238L65.3878 159.978Z" fill="#9C27B0" fill-opacity="0.69"/>
<path d="M77.212 162.648C76.801 162.593 76.4383 162.465 76.1241 162.265C75.8102 162.063 75.5747 161.8 75.4174 161.478C75.2604 161.153 75.2103 160.779 75.2672 160.357C75.3172 159.985 75.4309 159.694 75.6084 159.483C75.7862 159.269 76.0065 159.112 76.2693 159.013C76.532 158.913 76.8156 158.851 77.1199 158.826C77.4274 158.799 77.7345 158.786 78.0411 158.787C78.4421 158.789 78.7667 158.794 79.0151 158.802C79.2666 158.807 79.4531 158.785 79.5744 158.735C79.6986 158.686 79.7714 158.581 79.793 158.42L79.7976 158.387C79.8536 157.97 79.7832 157.631 79.5862 157.369C79.392 157.108 79.0654 156.947 78.6065 156.885C78.1307 156.821 77.7436 156.875 77.4453 157.047C77.1469 157.219 76.927 157.416 76.7853 157.637L75.8848 157.172C76.1067 156.801 76.3733 156.524 76.6844 156.343C76.9986 156.158 77.3292 156.045 77.676 156.003C78.026 155.958 78.3643 155.958 78.6909 156.002C78.8992 156.03 79.1351 156.087 79.3986 156.175C79.6653 156.259 79.9151 156.394 80.148 156.581C80.3838 156.767 80.5655 157.025 80.6931 157.355C80.8208 157.684 80.85 158.107 80.7806 158.622L80.2057 162.896L79.209 162.762L79.3272 161.884L79.2765 161.877C79.19 162.008 79.0571 162.144 78.8778 162.283C78.6986 162.422 78.4704 162.531 78.1934 162.608C77.9164 162.686 77.5893 162.699 77.212 162.648ZM77.4845 161.773C77.8787 161.826 78.2213 161.794 78.5125 161.675C78.8064 161.557 79.0388 161.385 79.2097 161.158C79.3835 160.932 79.4885 160.684 79.5249 160.414L79.6476 159.502C79.5985 159.547 79.4994 159.581 79.3501 159.603C79.204 159.624 79.036 159.637 78.846 159.643C78.6592 159.647 78.477 159.648 78.2994 159.647C78.125 159.644 77.9834 159.642 77.8745 159.641C77.6109 159.64 77.3614 159.663 77.1259 159.708C76.8936 159.752 76.6985 159.839 76.5404 159.969C76.3856 160.098 76.2911 160.288 76.257 160.542C76.2105 160.888 76.3033 161.167 76.5357 161.379C76.7712 161.588 77.0875 161.72 77.4845 161.773Z" fill="#9C27B0" fill-opacity="0.69"/>
<path d="M90.1348 163.499C89.5212 163.502 88.992 163.361 88.5471 163.073C88.1023 162.786 87.759 162.389 87.5174 161.882C87.2759 161.375 87.1532 160.795 87.1494 160.141C87.1455 159.476 87.2642 158.889 87.5056 158.379C87.7498 157.866 88.0912 157.465 88.5299 157.176C88.9714 156.883 89.4876 156.735 90.0785 156.732C90.5387 156.729 90.9539 156.812 91.3242 156.98C91.6945 157.149 91.9985 157.386 92.2361 157.691C92.4736 157.997 92.622 158.354 92.6812 158.762L91.6756 158.768C91.5971 158.47 91.4251 158.207 91.1596 157.979C90.8969 157.747 90.5439 157.633 90.1008 157.635C89.7087 157.638 89.3656 157.742 89.0713 157.948C88.7799 158.152 88.5528 158.438 88.3902 158.809C88.2304 159.176 88.152 159.607 88.1548 160.101C88.1578 160.607 88.2399 161.047 88.4011 161.421C88.5653 161.795 88.7942 162.085 89.088 162.29C89.3847 162.496 89.7319 162.598 90.1296 162.595C90.391 162.594 90.6279 162.547 90.8404 162.455C91.053 162.363 91.2326 162.231 91.3793 162.06C91.5261 161.888 91.63 161.683 91.6911 161.444L92.6968 161.438C92.6422 161.825 92.5036 162.174 92.281 162.485C92.0612 162.793 91.7686 163.039 91.4032 163.223C91.0406 163.404 90.6178 163.496 90.1348 163.499Z" fill="#9C27B0" fill-opacity="0.69"/>
<path d="M100.249 160.318L100.052 159.09L100.254 159.06L102.665 155.761L103.896 155.581L101.324 159.076L101.24 159.088L100.249 160.318ZM99.6667 162.815L98.4027 154.18L99.3978 154.034L100.662 162.67L99.6667 162.815ZM103.782 162.213L100.783 159.379L101.39 158.584L105.047 162.028L103.782 162.213Z" fill="#9C27B0" fill-opacity="0.69"/>
<path d="M114.334 159.922C113.728 160.099 113.167 160.119 112.65 159.98C112.135 159.838 111.688 159.56 111.309 159.147C110.933 158.731 110.65 158.201 110.462 157.557C110.273 156.914 110.225 156.312 110.315 155.753C110.408 155.19 110.625 154.709 110.967 154.31C111.311 153.907 111.767 153.623 112.334 153.457C112.661 153.361 113 153.321 113.351 153.336C113.702 153.352 114.044 153.444 114.378 153.613C114.71 153.779 115.013 154.04 115.286 154.395C115.559 154.75 115.781 155.221 115.953 155.807L116.072 156.216L111.23 157.634L110.986 156.8L114.847 155.669C114.743 155.315 114.579 155.019 114.356 154.783C114.136 154.545 113.872 154.384 113.566 154.299C113.263 154.213 112.937 154.221 112.588 154.324C112.203 154.436 111.899 154.629 111.674 154.902C111.451 155.172 111.308 155.48 111.247 155.826C111.186 156.173 111.206 156.519 111.307 156.866L111.47 157.422C111.609 157.896 111.809 158.274 112.069 158.556C112.331 158.835 112.634 159.017 112.979 159.102C113.323 159.185 113.69 159.169 114.08 159.055C114.333 158.981 114.552 158.878 114.736 158.748C114.921 158.613 115.068 158.452 115.176 158.264C115.283 158.072 115.345 157.856 115.363 157.614L116.372 157.603C116.366 157.948 116.283 158.274 116.121 158.582C115.959 158.887 115.727 159.156 115.425 159.389C115.123 159.62 114.759 159.798 114.334 159.922Z" fill="#9C27B0" fill-opacity="0.69"/>
<path d="M123.201 156.648L120.575 150.653L121.465 150.263L121.862 151.169L121.924 151.141C121.904 150.797 121.996 150.469 122.201 150.159C122.407 149.849 122.689 149.615 123.048 149.458C123.116 149.429 123.201 149.393 123.303 149.351C123.406 149.309 123.485 149.279 123.539 149.262L123.949 150.199C123.914 150.205 123.838 150.224 123.719 150.258C123.602 150.287 123.482 150.329 123.36 150.382C123.068 150.51 122.835 150.685 122.659 150.908C122.485 151.127 122.379 151.372 122.339 151.643C122.302 151.911 122.342 152.18 122.461 152.451L124.122 156.245L123.201 156.648Z" fill="#9C27B0" fill-opacity="0.69"/>
<defs>
<filter id="filter0_d_8_2" x="4.5" y="4.5" width="171" height="171" filterUnits="userSpaceOnUse" color-interpolation-filters="sRGB">
<feFlood flood-opacity="0" result="BackgroundImageFix"/>
<feColorMatrix in="SourceAlpha" type="matrix" values="0 0 0 0 0 0 0 0 0 0 0 0 0 0 0 0 0 0 127 0" result="hardAlpha"/>
<feMorphology radius="1.5" operator="dilate" in="SourceAlpha" result="effect1_dropShadow_8_2"/>
<feOffset/>
<feGaussianBlur stdDeviation="2"/>
<feComposite in2="hardAlpha" operator="out"/>
<feColorMatrix type="matrix" values="0 0 0 0 0 0 0 0 0 0 0 0 0 0 0 0 0 0 0.25 0"/>
<feBlend mode="normal" in2="BackgroundImageFix" result="effect1_dropShadow_8_2"/>
<feBlend mode="normal" in="SourceGraphic" in2="effect1_dropShadow_8_2" result="shape"/>
</filter>
<filter id="filter1_i_8_2" x="30" y="30" width="120" height="120" filterUnits="userSpaceOnUse" color-interpolation-filters="sRGB">
<feFlood flood-opacity="0" result="BackgroundImageFix"/>
<feBlend mode="normal" in="SourceGraphic" in2="BackgroundImageFix" result="shape"/>
<feColorMatrix in="SourceAlpha" type="matrix" values="0 0 0 0 0 0 0 0 0 0 0 0 0 0 0 0 0 0 127 0" result="hardAlpha"/>
<feMorphology radius="1.5" operator="erode" in="SourceAlpha" result="effect1_innerShadow_8_2"/>
<feOffset/>
<feGaussianBlur stdDeviation="2"/>
<feComposite in2="hardAlpha" operator="arithmetic" k2="-1" k3="1"/>
<feColorMatrix type="matrix" values="0 0 0 0 0 0 0 0 0 0 0 0 0 0 0 0 0 0 0.25 0"/>
<feBlend mode="normal" in2="shape" result="effect1_innerShadow_8_2"/>
</filter>
</defs>
</svg>
