<svg width="54" height="54" viewBox="0 0 54 54" fill="none" xmlns="http://www.w3.org/2000/svg">
<path d="M41.5556 23.4445H30.4442V12.5555C30.4442 10.7155 28.9509 8.99997 27.1109 8.99997C25.2709 8.99997 23.7776 10.7155 23.7776 12.5555V23.4445H13.1109C11.2709 23.4445 9.5553 25.1599 9.5553 27C9.5553 28.84 11.2709 30.1112 13.1109 30.1112H23.7776V41.2222C23.7776 43.0622 25.2709 44.7777 27.1109 44.7777C28.9509 44.7777 30.4442 43.0622 30.4442 41.2222V30.1112H41.5556C43.3956 30.1112 45.1112 28.84 45.1112 27C45.1112 25.1599 43.3956 23.4445 41.5556 23.4445Z" fill="#1E36E2"/>
</svg>
