<svg width="34" height="34" viewBox="0 0 34 34" fill="none" xmlns="http://www.w3.org/2000/svg">
<path d="M17 0C7.61016 0 0 7.61016 0 17C0 26.3898 7.61016 34 17 34C26.3898 34 34 26.3898 34 17C34 7.61016 26.3898 0 17 0ZM17 8.5C19.641 8.5 21.7812 10.6409 21.7812 13.2812C21.7812 15.9216 19.643 18.0625 17 18.0625C14.3597 18.0625 12.2188 15.9216 12.2188 13.2812C12.2188 10.6409 14.357 8.5 17 8.5ZM17 29.75C13.4851 29.75 10.2996 28.3203 7.98867 26.012C9.06445 23.2355 11.7207 21.25 14.875 21.25H19.125C22.282 21.25 24.9382 23.2342 26.0113 26.012C23.7004 28.3223 20.5129 29.75 17 29.75Z" fill="#C6DAE6"/>
</svg>
